<svg width="588" height="172" viewBox="0 0 588 172" fill="none" xmlns="http://www.w3.org/2000/svg">
<path d="M477.48 106.5C477.48 80.4609 493.968 62.1463 517.419 62.1463C540.871 62.1463 557.621 80.4501 557.621 106.5C557.621 132.551 540.875 149.818 517.419 149.818C493.964 149.818 477.48 131.763 477.48 106.5ZM453 106.5C453 144.923 479.799 172 517.416 172C555.033 172 582.095 144.923 582.095 106.5C582.095 68.0782 555.296 39.9747 517.416 39.9747C479.536 39.9747 453 67.5704 453 106.5ZM328.022 41.5197L378.531 170.448H402.242L452.748 41.5197H427.238L390.646 141.055H390.128L353.536 41.5197H328.022ZM229.843 101.854C231.387 78.1267 247.108 62.1463 268.497 62.1463C287.047 62.1463 300.964 74.0102 303.027 91.8057H260.248C245.046 91.8057 236.797 93.6103 230.621 101.866H229.843V101.854ZM205.366 105.723C205.366 144.145 232.424 171.989 269.782 171.989C295.037 171.989 317.193 159.099 326.727 138.721L306.115 128.402C298.902 141.811 284.985 149.807 269.782 149.807C251.481 149.807 234.993 135.879 234.993 122.47C234.993 115.512 239.633 112.411 246.33 112.411H328.012V105.452C328.012 66.7708 303.275 39.953 267.72 39.953C232.165 39.953 205.363 67.5488 205.363 105.712M135.278 170.433H158.47V91.2833C158.47 74.266 169.03 62.1427 183.725 62.1427C189.912 62.1427 196.347 64.2064 199.446 67.0374C201.767 60.8461 205.373 54.6658 210.783 48.4745C204.596 43.3206 194.036 39.9602 183.725 39.9602C155.383 39.9602 135.278 61.1054 135.278 91.2725V170.433ZM23.1924 85.0999V22.1717H61.328C74.2092 22.1717 82.7173 29.6487 82.7173 40.9939C82.7173 53.8842 71.6393 63.6842 48.9653 71.1613C33.5037 76.0555 26.5503 80.1835 23.9697 85.0891L23.1924 85.0999ZM23.1924 148.276V121.977C23.1924 110.372 32.9854 99.0268 46.6439 94.6401C58.7583 90.5128 68.7997 86.3856 77.3077 82.0096C88.6446 88.719 95.5981 100.313 95.5981 112.436C95.5981 133.063 76.0119 148.276 49.4727 148.276H23.1924ZM0 170.448H51.535C90.7069 170.448 120.075 145.953 120.075 113.463C120.075 95.6671 111.06 79.6862 95.0803 69.3676C103.329 61.1127 107.195 51.5719 107.195 39.9674C107.195 15.9913 89.9296 0 63.9086 0H0V170.448Z" fill="#0B996E"/>
</svg>
