<svg width="104" height="32" viewBox="0 0 104 32" fill="none" xmlns="http://www.w3.org/2000/svg">
<g clip-path="url(#clip0_25_2)">
<mask id="mask0_25_2" style="mask-type:luminance" maskUnits="userSpaceOnUse" x="0" y="0" width="104" height="32">
<path d="M104 0H0V32H104V0Z" fill="white"/>
</mask>
<g mask="url(#mask0_25_2)">
<path d="M36.7998 27.3961V16.4454H39.1403V17.5269C39.8466 16.6879 40.9506 16.2246 42.2534 16.2246C43.821 16.2246 45.0794 16.8646 45.8082 18.1012C46.6474 16.931 48.0598 16.2246 49.6942 16.2246C52.3874 16.2246 54.2638 18.1235 54.2638 21.104V27.3961H51.813V21.3248C51.813 19.5809 50.8638 18.5428 49.2966 18.5428C47.7294 18.5428 46.7578 19.6243 46.7578 21.3248V27.3961H44.3066V21.3248C44.3066 19.5809 43.3574 18.5428 41.8118 18.5428C40.2666 18.5428 39.2506 19.6243 39.2506 21.3248V27.3961H36.7998Z" fill="black"/>
<path d="M55.7646 21.9217C55.7646 18.7205 58.1494 16.2256 61.2842 16.2256C62.8298 16.2256 64.1318 16.8439 64.9494 17.9037V16.4464H67.2899V27.3971H64.9494V25.9397C64.1542 26.9995 62.8298 27.6178 61.2842 27.6178C58.1494 27.6178 55.7646 25.1229 55.7646 21.9217ZM64.8606 21.9217C64.8606 19.9571 63.4694 18.522 61.549 18.522C59.6282 18.522 58.215 19.9571 58.215 21.9217C58.215 23.8864 59.6278 25.2997 61.549 25.2997C63.4702 25.2997 64.8606 23.887 64.8606 21.9217Z" fill="black"/>
<path d="M69.938 13.3326C69.938 12.5159 70.534 11.9199 71.3508 11.9199C72.1676 11.9199 72.7632 12.5159 72.7632 13.3326C72.7632 14.1494 72.1676 14.7237 71.3508 14.7237C70.534 14.7237 69.938 14.1277 69.938 13.3326ZM70.1148 27.3959V16.4452H72.5656V27.3959H70.1148Z" fill="black"/>
<path d="M75.376 27.3956V12.1621H77.8268V27.3956H75.376Z" fill="black"/>
<path d="M78.5581 29.4492H79.1101C80.1701 29.4492 80.6997 28.8973 80.6997 27.8158V16.4458H83.1505V27.794C83.1505 30.4434 81.4945 31.724 78.9997 31.724H78.5581V29.4492ZM80.5233 13.3326C80.5233 12.5159 81.1193 11.9199 81.9361 11.9199C82.7529 11.9199 83.3489 12.5159 83.3489 13.3326C83.3489 14.1494 82.7529 14.7237 81.9361 14.7237C81.1193 14.7237 80.5233 14.1277 80.5233 13.3326Z" fill="black"/>
<path d="M85.1016 21.9217C85.1016 18.7205 87.5524 16.2256 90.6648 16.2256C93.7772 16.2256 96.14 18.6101 96.14 21.8553C96.14 22.1202 96.14 22.4073 96.096 22.6721H87.53C87.8172 24.4606 89.0532 25.4758 90.7752 25.4758C92.1 25.4758 93.1156 24.8135 93.6892 23.82L95.7204 24.9679C94.6164 26.6237 92.8944 27.6172 90.7752 27.6172C87.5516 27.6172 85.1016 25.1006 85.1016 21.9211V21.9217ZM87.5964 20.8836H93.6676C93.4468 19.4045 92.2988 18.3447 90.6432 18.3447C89.12 18.3447 87.9496 19.2941 87.5964 20.8836Z" fill="black"/>
<path d="M102.308 27.3961C99.733 27.3961 98.541 26.3145 98.621 24.0404V18.6978H96.811V16.446H98.0694C98.3206 16.446 98.541 16.2252 98.621 15.8277V13.708H101.072V16.4454H103.986V18.6972H101.072V23.7973C100.992 24.6581 101.411 25.0996 102.485 25.0996H103.986V27.3955H102.308V27.3961Z" fill="black"/>
<path d="M61.9163 3.2665C62.3715 2.95441 62.9079 2.78362 63.4595 2.77441C65.2943 2.77441 66.5695 4.02708 66.5695 5.88364V9.42108H64.8943V6.04152C64.8943 5.01188 64.2683 4.40796 63.4179 4.40796C62.5007 4.40796 61.9411 5.0598 61.9411 6.04152V9.41924H60.2583V0.962688L61.9171 0V3.2665H61.9163Z" fill="black"/>
<path d="M39.5482 5.39829C39.6606 5.42533 39.7792 5.45297 39.9008 5.48369C41.1312 5.79641 42.0712 6.22153 42.072 7.45269C42.072 8.72809 40.8192 9.59985 39.2527 9.59985C37.9552 9.59801 36.9704 9.24105 36.3438 8.21141L37.8213 7.36177C38.1118 7.94357 38.6033 8.23477 39.2975 8.23353C39.9487 8.23353 40.3492 7.94293 40.3492 7.51781C40.3492 7.09269 39.7909 6.95937 38.8276 6.75725C37.5073 6.46605 36.6577 5.92973 36.6577 4.81097C36.6577 3.60071 37.8882 2.77441 39.2527 2.77441C40.4164 2.77441 41.2212 3.08835 41.9368 3.98468L40.5276 4.79073C40.2596 4.32565 39.856 4.09713 39.2748 4.09713C38.6936 4.09713 38.3355 4.36557 38.3355 4.72373C38.3355 5.10957 38.8362 5.22873 39.5482 5.39893V5.39829Z" fill="black"/>
<path d="M42.9663 9.42109L44.6219 9.41925V2.77441L42.9663 3.74324V9.42109Z" fill="black"/>
<path d="M48.9404 2.77441C47.1056 2.77441 45.7856 4.14013 45.7856 5.93033V9.42169L47.466 9.41985V6.04213C47.466 5.06041 48.0256 4.40857 48.9436 4.40857C49.7932 4.40857 50.42 5.01249 50.42 6.04213V9.41985H52.0956V5.93033C52.0956 4.22921 50.8024 2.77441 48.9412 2.77441H48.9404Z" fill="black"/>
<path d="M54.6843 6.17584C54.6843 7.20548 55.3779 7.98816 56.4079 7.98816C57.0791 7.98816 57.6603 7.65212 57.9287 7.09304L59.3603 7.9218C59.0655 8.43724 58.6383 8.8642 58.1235 9.15848C57.6083 9.45276 57.0239 9.60452 56.4303 9.59712C54.4435 9.599 52.9863 8.16692 52.9863 6.17644C52.9863 4.18596 54.4179 2.77539 56.4303 2.77539C57.6823 2.77539 58.8011 3.4266 59.3375 4.43108L57.9063 5.28196C57.7655 5.00672 57.5503 4.77756 57.2855 4.61904C57.0203 4.46056 56.7163 4.38008 56.4079 4.3862C55.4231 4.3862 54.6843 5.12404 54.6843 6.17584Z" fill="black"/>
<path d="M0 6.16039C0 2.97947 2.57908 0.400391 5.76 0.400391H23.04C26.2209 0.400391 28.8 2.97947 28.8 6.16039V23.4404C28.8 26.6213 26.2209 29.2004 23.04 29.2004H5.76C2.57908 29.2004 0 26.6213 0 23.4404V6.16039Z" fill="#B7A8FF"/>
<path d="M24.833 12.9836C24.3362 12.2774 23.6444 11.7479 22.8338 11.4542C22.3125 11.2593 21.766 11.1631 21.2095 11.1687C20.2404 11.175 19.2128 11.4788 18.24 12.0479L9.59252 17.1102C8.24676 17.8976 7.24624 17.7919 6.64064 17.563C6.19604 17.4045 5.81812 17.1171 5.5458 16.7329C5.27288 16.348 5.127 15.8959 5.12512 15.4249C5.1226 14.9532 5.2622 14.4992 5.53072 14.1118C5.7986 13.7238 6.17404 13.4326 6.61928 13.2672C7.2192 13.0327 8.21784 12.9151 9.5724 13.6854L10.5465 14.2426C10.4899 14.4382 10.4478 14.6394 10.4214 14.8406L10.3711 15.2218L17.7482 10.9631L17.7633 10.9537C17.9608 10.814 18.0972 10.6065 18.1482 10.3707C18.1991 10.1342 18.1602 9.889 18.0375 9.68084C17.9155 9.47268 17.7206 9.31864 17.4885 9.24756C17.2571 9.17648 17.01 9.19472 16.7917 9.29912L16.7848 9.30228L14.397 10.6889L11.9646 9.29788L11.9508 9.29096C11.73 9.1878 11.481 9.17208 11.2496 9.24632C11.0182 9.32052 10.8245 9.47772 10.7044 9.68964C10.5842 9.90156 10.549 10.1487 10.6056 10.3852C10.6616 10.6216 10.8037 10.8272 11.0056 10.9631L12.4897 11.8039L12.286 11.924L12.2816 11.9265C11.9929 12.1095 11.7288 12.3284 11.4948 12.5768L10.5207 12.0152C8.95048 11.1209 7.3148 10.9291 5.9162 11.4756C5.33324 11.7008 4.79684 12.0586 4.36544 12.5114C3.93403 12.9635 3.60136 13.5163 3.4039 14.1112C3.06935 15.1538 3.14858 16.27 3.62904 17.2542C4.10948 18.2384 4.9402 18.9886 5.96716 19.366C6.48912 19.5609 7.03684 19.6571 7.59212 19.6514C8.56056 19.6452 9.58752 19.3408 10.5616 18.771L10.5767 18.7616L19.2047 13.7093C20.5498 12.9226 21.551 13.0283 22.1578 13.2566C22.6018 13.4144 22.9804 13.7005 23.2533 14.0848C23.5256 14.4696 23.6696 14.9224 23.6708 15.394C23.6715 15.6424 23.6338 15.889 23.5596 16.1223C23.4501 16.4455 23.2678 16.7467 23.0307 16.992C22.7942 17.2379 22.5006 17.4322 22.1804 17.5542C21.5805 17.7881 20.5806 17.9051 19.2261 17.1354L18.252 16.5782C18.3142 16.3644 18.3582 16.1456 18.3846 15.9254L18.4299 15.5475L12.684 18.9119V21.1356L16.5138 18.8993L16.5201 18.8956C16.8075 18.7126 17.0716 18.4937 17.3049 18.2453L18.2796 18.8069C19.8562 19.698 21.4918 19.8892 22.8823 19.3464C23.691 19.0427 24.3758 18.5057 24.8644 17.7932C25.3524 17.0813 25.6065 16.248 25.599 15.3852H25.6002C25.5952 14.5206 25.331 13.6905 24.8342 12.9842L24.833 12.9836Z" fill="black"/>
</g>
</g>
<defs>
<clipPath id="clip0_25_2">
<rect width="104" height="32" fill="white"/>
</clipPath>
</defs>
</svg>
