<svg width="828" height="178" viewBox="0 0 828 178" fill="none" xmlns="http://www.w3.org/2000/svg">
<path d="M227.764 49.5258C265.151 49.5258 292.359 75.5203 290.428 122.763H199.381C202.781 135.893 211.865 147.175 230.048 147.175C240.228 147.175 249.531 144.365 256.553 135.583H287.973L287.443 138.394C282.003 162.455 254.62 175.802 230.048 175.802C191.079 175.802 164.928 149.458 164.928 112.753C164.928 76.0456 191.079 49.5258 227.764 49.5258ZM491.23 49.5258C528.793 49.5258 555.825 75.5203 554.07 122.763H462.999C466.357 135.893 475.375 147.175 493.69 147.175C503.87 147.175 513.173 144.365 520.019 135.583H551.615L551.086 138.394C545.646 162.455 518.262 175.802 493.69 175.802C454.721 175.802 428.568 149.458 428.568 112.753C428.568 76.0456 454.721 49.5258 491.23 49.5258ZM357.305 48.8225C385.038 48.8225 409.436 58.8345 416.458 83.4227L417.161 86.0597H382.582C375.209 76.9246 365.379 75.694 357.305 75.694C349.757 75.694 337.822 77.6278 337.822 85.0049C337.822 91.8524 345.72 94.1356 352.566 95.0124L372.576 97.1221C404.345 99.9305 418.388 112.402 418.388 136.814C418.388 164.914 390.48 175.451 362.923 175.451C335.364 175.451 306.751 163.158 301.311 138.218L300.786 135.583H336.241C341.154 149.63 363.786 148.582 362.923 148.579C376.261 148.579 384.511 144.54 384.513 138.042C384.513 133.827 383.107 128.909 369.418 127.154L348.529 125.046C320.97 123.114 304.296 108.538 304.296 86.7607C304.296 60.0651 329.573 48.8247 357.305 48.8247V48.8225ZM827.717 172.289H793.666L795.42 155.253C790.683 165.441 775.41 175.449 756.278 175.449C724.685 175.449 699.056 151.214 699.056 112.929C699.056 74.6413 724.333 50.4048 756.278 50.4048C773.655 50.4048 784.362 56.0239 793.841 65.6842V0H827.717V172.289ZM105.6 0C138.948 0 158.783 19.8437 158.783 46.1899C158.783 72.5339 138.95 92.3798 105.598 92.382H88.7477L172.475 172.286H113.322L49.6076 111.701C45.0416 107.486 42.9353 102.568 42.9353 98.3527C42.9353 92.382 47.1478 87.1145 55.2214 84.8313L88.0449 76.05C100.507 72.7119 109.107 63.0516 109.109 50.407C109.109 34.9539 96.472 25.9946 80.8498 25.9946H0.28125V0H105.6ZM636.392 49.7016C666.233 49.7016 687.122 71.4791 687.122 102.565V172.286H653.068V108.36C653.068 90.7976 643.765 80.2582 627.266 80.2582C610.765 80.2582 600.059 91.147 600.059 108.358V172.286H566.71V52.1606H600.583L599.007 71.3033C603.922 61.6451 619.19 49.7016 636.392 49.7016ZM764.352 80.2604C743.816 80.2604 732.932 95.5421 732.932 112.929C732.932 131.544 745.22 145.771 764.352 145.771C782.781 145.771 794.718 131.368 794.718 112.929C794.718 94.4872 783.132 80.2604 764.352 80.2604ZM227.764 76.7488C211.173 76.7488 201.692 86.664 198.751 99.9327H256.179C255.798 98.2713 255.336 96.6293 254.796 95.0124C250.583 83.0711 240.753 76.7488 227.764 76.7488ZM491.23 76.7488C474.782 76.7488 465.33 86.664 462.393 99.9327H519.822C519.44 98.2713 518.978 96.6293 518.438 95.0124C514.225 83.0711 504.395 76.7488 491.23 76.7488Z" fill="black"/>
</svg>
