<svg width="130" height="27" viewBox="0 0 130 27" fill="none" xmlns="http://www.w3.org/2000/svg">
<path d="M26.6011 19.6454C26.6011 19.6454 28.5794 21.8771 32.1721 21.8771C35.5375 21.8771 37.4931 19.6914 37.4931 17.0915C37.4931 11.8687 29.8982 12.5819 29.8982 9.68289C29.8982 8.53249 30.967 7.72721 32.3313 7.72721C34.3551 7.72721 35.9013 9.15371 35.9013 9.15371L37.1747 6.73787C37.1747 6.73787 35.5375 4.98926 32.354 4.98926C29.2615 4.98926 26.9422 7.01396 26.9422 9.72891C26.9422 14.7447 34.5597 14.2385 34.5597 17.1605C34.5597 18.495 33.4455 19.1392 32.2176 19.1392C29.9437 19.1392 28.1928 17.4136 28.1928 17.4136L26.6011 19.6454Z" fill="#09092C"/>
<path d="M38.4643 15.734C38.4643 19.0702 40.8518 21.8771 44.6947 21.8771C47.5826 21.8771 49.3562 20.1976 49.3562 20.1976L48.242 18.1038C48.242 18.1038 46.764 19.3923 44.8994 19.3923C43.1712 19.3923 41.6022 18.3339 41.4203 16.2862H49.4244C49.4244 16.2862 49.4927 15.5039 49.4927 15.1588C49.4927 12.0527 47.6963 9.59086 44.3537 9.59086C40.8973 9.59086 38.4643 12.1217 38.4643 15.734ZM41.5113 14.2845C41.7841 12.766 42.8074 11.8456 44.2854 11.8456C45.5588 11.8456 46.5366 12.6969 46.5821 14.2845H41.5113Z" fill="#09092C"/>
<path d="M51.1915 21.601H54.0794V16.2172C54.0794 15.665 54.1248 15.1358 54.284 14.6526C54.7161 13.2491 55.853 12.2598 57.3993 12.2598C58.8773 12.2598 59.2411 13.2261 59.2411 14.6526V21.601H62.1062V14.0544C62.1062 10.9483 60.6509 9.59086 58.0814 9.59086C55.7393 9.59086 54.4659 11.0404 53.9657 12.0297H53.9202C53.9202 12.0297 53.9657 11.6616 53.9657 11.2244V9.86696H51.1915V21.601Z" fill="#09092C"/>
<path d="M63.2693 15.734C63.2693 19.3693 65.2704 21.8771 68.4083 21.8771C71.0688 21.8771 72.0466 19.8754 72.0466 19.8754H72.092C72.092 19.8754 72.0466 20.1976 72.0466 20.6347V21.601H74.7752V5.26535H71.8874V10.4191C71.8874 10.7873 71.9101 11.0864 71.9101 11.0864H71.8647C71.8647 11.0864 71.0688 9.59086 68.522 9.59086C65.4523 9.59086 63.2693 12.0067 63.2693 15.734ZM66.1799 15.734C66.1799 13.4102 67.4988 12.0987 69.0905 12.0987C71.0233 12.0987 71.9784 13.8934 71.9784 15.711C71.9784 18.3109 70.5685 19.4153 69.0678 19.4153C67.3623 19.4153 66.1799 17.9658 66.1799 15.734Z" fill="#09092C"/>
<path d="M77.7388 21.601H87.653V19.0472H80.6721V5.26535H77.7388V21.601Z" fill="#09092C"/>
<path d="M88.2713 18.2189C88.2713 20.5657 90.1359 21.8771 92.2052 21.8771C94.8429 21.8771 95.7525 19.8064 95.7297 19.8064H95.7752C95.7752 19.8064 95.7297 20.1745 95.7297 20.6347V21.601H98.3902V14.2615C98.3902 11.2935 96.6166 9.59086 93.5695 9.59086C90.8181 9.59086 89.0217 11.0404 89.0217 11.0404L90.1132 13.1341C90.1132 13.1341 91.6367 12.0067 93.2967 12.0067C94.57 12.0067 95.5251 12.5359 95.5251 14.0774V14.2385H95.1385C93.2512 14.2385 88.2713 14.4916 88.2713 18.2189ZM91.1819 18.0808C91.1819 16.4472 93.5695 16.2402 95.0476 16.2402H95.5478V16.5163C95.5478 17.9428 94.4564 19.5993 92.9328 19.5993C91.7504 19.5993 91.1819 18.8631 91.1819 18.0808Z" fill="#09092C"/>
<path d="M98.7551 25.6735C98.7551 25.6735 99.7784 26.4327 101.165 26.4327C102.916 26.4327 104.531 25.5124 105.349 23.3727L110.534 9.86696H107.373L105.099 16.6773C104.895 17.2985 104.713 18.2189 104.713 18.2189H104.667C104.667 18.2189 104.463 17.2525 104.235 16.6313L101.802 9.86696H98.5505L103.439 21.417L103.007 22.4523C102.575 23.4877 101.802 23.9709 101.006 23.9709C100.347 23.9709 99.7101 23.4877 99.7101 23.4877L98.7551 25.6735Z" fill="#09092C"/>
<path d="M110.292 15.734C110.292 19.0702 112.679 21.8771 116.522 21.8771C119.41 21.8771 121.184 20.1976 121.184 20.1976L120.07 18.1038C120.07 18.1038 118.592 19.3923 116.727 19.3923C114.999 19.3923 113.43 18.3339 113.248 16.2862H121.252C121.252 16.2862 121.32 15.5039 121.32 15.1588C121.32 12.0527 119.524 9.59086 116.181 9.59086C112.725 9.59086 110.292 12.1217 110.292 15.734ZM113.339 14.2845C113.612 12.766 114.635 11.8456 116.113 11.8456C117.386 11.8456 118.364 12.6969 118.41 14.2845H113.339Z" fill="#09092C"/>
<path d="M123.019 21.601H125.907V16.9534C125.907 16.2632 125.975 15.619 126.157 15.0438C126.703 13.2951 128.09 12.5819 129.318 12.5819C129.704 12.5819 130 12.6279 130 12.6279V9.75192C130 9.75192 129.75 9.7059 129.477 9.7059C127.703 9.7059 126.316 11.0404 125.793 12.72H125.748C125.748 12.72 125.793 12.3288 125.793 11.8917V9.86696H123.019V21.601Z" fill="#09092C"/>
<path d="M16.3207 2.56818C17.1127 3.01125 17.6044 3.85472 17.6044 4.77047L17.6044 22.2295C17.6044 23.1453 17.1127 23.9887 16.3207 24.4318L12.2978 26.6822C10.6402 27.6095 8.60742 26.3964 8.60742 24.4799L8.60742 2.52006C8.60742 0.603592 10.6402 -0.609495 12.2978 0.317766L16.3207 2.56818Z" fill="#211FA6"/>
<path d="M6.53831 4.6235C6.63308 4.80144 6.68269 5.00041 6.68269 5.20254V21.7829C6.68269 21.985 6.63308 22.184 6.53831 22.3619C5.94389 23.478 4.27002 23.0507 4.27002 21.7829L4.27002 5.20253C4.27002 3.93466 5.94389 3.50737 6.53831 4.6235Z" fill="#211FA6"/>
<path d="M2.26829 7.92355C2.36306 8.10149 2.41267 8.30046 2.41267 8.50259L2.41267 18.5099C2.41267 18.7121 2.36306 18.911 2.26829 19.089C1.67387 20.2051 -5.47727e-08 19.7778 0 18.5099L4.95939e-07 8.50258C5.50711e-07 7.23471 1.67387 6.80742 2.26829 7.92355Z" fill="#211FA6"/>
</svg>
