<svg width="96" height="39" viewBox="0 0 96 39" fill="none" xmlns="http://www.w3.org/2000/svg">
<g clip-path="url(#clip0_25_23)">
<path d="M54.5999 38.1997C54.1999 38.1997 53.7999 38.0997 53.4999 37.7997C52.7999 37.2997 52.5999 36.2997 53.0999 35.4997C53.1999 35.2997 64.3999 16.6997 58.5999 7.49972C57.3999 5.59972 56.0999 4.49972 54.5999 4.49972C51.7999 4.39972 48.6999 7.49972 47.6999 8.79972C47.0999 9.59972 45.9999 9.69972 45.1999 9.09972C44.3999 8.49972 44.2999 7.39972 44.8999 6.59972C45.0999 6.39972 49.4999 0.699718 54.6999 0.999718C57.3999 1.09972 59.6999 2.69972 61.4999 5.69972C65.7999 12.5997 62.7999 22.9997 59.7999 29.8997C62.8999 27.6997 66.7999 25.5997 70.3999 24.9997C71.3999 24.8997 72.2999 25.4997 72.3999 26.4997C72.4999 27.4997 71.8999 28.3997 70.8999 28.4997C63.9999 29.5997 55.7999 37.5997 55.6999 37.6997C55.4999 38.0997 54.9999 38.1997 54.5999 38.1997Z" fill="#ABD3FF"/>
<path d="M11.5001 23.5002C11.5001 24.4002 11.3001 25.3002 10.8001 26.0002C10.3001 26.7002 9.6001 27.3002 8.7001 27.7002C7.8001 28.1002 6.7001 28.3002 5.4001 28.3002C4.4001 28.3002 3.5001 28.2002 2.8001 28.1002C2.1001 28.0002 1.4001 27.7002 0.600098 27.4002V23.8002C1.4001 24.2002 2.2001 24.5002 3.1001 24.7002C3.9001 24.9002 4.7001 25.0002 5.4001 25.0002C6.0001 25.0002 6.5001 24.9002 6.8001 24.7002C7.1001 24.5002 7.2001 24.2002 7.2001 23.9002C7.2001 23.7002 7.1001 23.5002 7.0001 23.4002C7.0001 23.2002 6.8001 23.0002 6.5001 22.9002C6.2001 22.7002 5.5001 22.4002 4.4001 21.9002C3.4001 21.5002 2.6001 21.0002 2.1001 20.6002C1.6001 20.2002 1.2001 19.7002 1.0001 19.2002C0.800098 18.7002 0.600098 18.0002 0.600098 17.3002C0.600098 15.9002 1.1001 14.8002 2.2001 14.1002C3.2001 13.3002 4.7001 12.9002 6.5001 12.9002C8.1001 12.9002 9.8001 13.3002 11.4001 14.0002L10.2001 17.0002C8.7001 16.4002 7.5001 16.0002 6.4001 16.0002C5.9001 16.0002 5.5001 16.1002 5.2001 16.3002C5.0001 16.5002 4.8001 16.8002 4.8001 17.0002C4.8001 17.3002 5.0001 17.6002 5.3001 17.8002C5.6001 18.0002 6.5001 18.5002 7.9001 19.1002C9.2001 19.7002 10.2001 20.3002 10.7001 21.0002C11.2001 21.7002 11.5001 22.5002 11.5001 23.5002ZM20.3001 28.1002L17.1001 17.2002H17.0001C17.1001 19.1002 17.2001 20.5002 17.2001 21.5002V28.0002H13.5001V13.0002H19.1001L22.4001 23.7002H22.5001L25.6001 13.0002H31.2001V28.1002H27.3001V20.4002C27.3001 20.4002 27.4001 19.0002 27.4001 17.3002H27.3001L24.2001 28.1002H20.3001ZM40.6001 28.1002H36.4001V16.3002H32.6001V13.0002H44.4001V16.3002H40.6001V28.1002ZM57.5001 17.8002C57.5001 19.5002 57.0001 20.8002 56.0001 21.7002C55.0001 22.6002 53.5001 23.1002 51.6001 23.1002H50.4001V28.1002H46.2001V13.0002H51.6001C53.6001 13.0002 55.1001 13.4002 56.0001 14.2002C57.0001 15.1002 57.5001 16.3002 57.5001 17.8002ZM50.4001 19.8002H51.2001C51.8001 19.8002 52.3001 19.6002 52.7001 19.3002C53.1001 19.0002 53.3001 18.5002 53.3001 17.9002C53.3001 16.9002 52.7001 16.4002 51.5001 16.4002H50.4001V19.8002ZM72.0001 19.3002H78.7001V27.4002C76.9001 28.0002 74.9001 28.3002 72.7001 28.3002C70.3001 28.3002 68.4001 27.6002 67.1001 26.3002C65.8001 25.0002 65.1001 23.0002 65.1001 20.5002C65.1001 18.1002 65.8001 16.2002 67.3001 14.8002C68.7001 13.4002 70.8001 12.8002 73.3001 12.8002C74.3001 12.8002 75.2001 12.9002 76.1001 13.1002C77.0001 13.3002 77.7001 13.5002 78.4001 13.8002L77.0001 16.9002C75.9001 16.4002 74.6001 16.1002 73.3001 16.1002C72.1001 16.1002 71.1001 16.5002 70.4001 17.3002C69.7001 18.1002 69.4001 19.2002 69.4001 20.6002C69.4001 22.0002 69.7001 23.1002 70.3001 23.8002C70.9001 24.5002 71.8001 24.9002 72.9001 24.9002C73.5001 24.9002 74.1001 24.8002 74.6001 24.7002V22.3002H72.0001V19.3002ZM95.6001 20.5002C95.6001 23.0002 95.0001 25.0002 93.7001 26.3002C92.4001 27.6002 90.5001 28.3002 88.0001 28.3002C85.6001 28.3002 83.7001 27.6002 82.4001 26.3002C81.1001 25.0002 80.4001 23.0002 80.4001 20.5002C80.4001 18.0002 81.1001 16.1002 82.3001 14.7002C83.5001 13.3002 85.5001 12.7002 88.0001 12.7002C90.5001 12.7002 92.4001 13.4002 93.6001 14.7002C94.8001 16.0002 95.6001 18.0002 95.6001 20.5002ZM84.9001 20.5002C84.9001 23.4002 86.0001 24.9002 88.1001 24.9002C89.2001 24.9002 90.0001 24.5002 90.5001 23.8002C91.0001 23.1002 91.3001 22.0002 91.3001 20.5002C91.3001 19.0002 91.0001 17.9002 90.5001 17.2002C90.0001 16.5002 89.2001 16.1002 88.2001 16.1002C85.9001 16.1002 84.9001 17.6002 84.9001 20.5002Z" fill="black"/>
</g>
<defs>
<clipPath id="clip0_25_23">
<rect width="96" height="39" fill="white"/>
</clipPath>
</defs>
</svg>
