<svg width="499" height="130" viewBox="0 0 499 130" fill="none" xmlns="http://www.w3.org/2000/svg">
<path d="M0.800049 115.6L8.60005 106.3C14 110.7 19.6 113.6 26.4 113.6C31.8 113.6 35 111.5 35 108V107.8C35 104.5 32.9 102.8 23 100.2C11 97.1002 3.20005 93.8002 3.20005 81.9002V81.7002C3.20005 70.9002 11.9001 63.7002 24.1 63.7002C32.8 63.7002 40.2 66.4002 46.3 71.3002L39.5 81.2002C34.2 77.5002 29 75.3002 24 75.3002C19 75.3002 16.3 77.6002 16.3 80.5002V80.7002C16.3 84.6002 18.9001 85.9002 29.2001 88.6002C41.3001 91.8002 48.2001 96.1002 48.2001 106.5V106.7C48.2001 118.6 39.2 125.2 26.3 125.2C17.1 125.2 8.00005 122 0.800049 115.6ZM56.2001 64.6002H80.6C94.9 64.6002 103.5 73.1002 103.5 85.3002V85.5002C103.5 99.3002 92.7 106.5 79.3 106.5H69.3V124.4H56.2001V64.6002ZM79.7 94.7002C86.3 94.7002 90.1 90.8002 90.1 85.6002V85.4002C90.1 79.5002 86 76.4002 79.4 76.4002H69.3V94.7002H79.7ZM122.1 64.1002H134.2L159.8 124.3H146.1L140.6 110.9H115.3L109.8 124.3H96.5L122.1 64.1002ZM135.9 99.3002L128 79.9002L120 99.3002H135.9ZM166 64.6002H193.3C200.9 64.6002 206.8 66.7002 210.7 70.7002C214 74.0002 215.8 78.7002 215.8 84.4002V84.6002C215.8 94.2002 210.6 100.3 203 103.1L217.6 124.4H202.2L189.4 105.3H179.1V124.4H166V64.6002ZM192.5 93.6002C198.9 93.6002 202.6 90.2002 202.6 85.1002V85.0002C202.6 79.4002 198.7 76.5002 192.3 76.5002H179.2V93.7002H192.5V93.6002ZM285.8 64.6002H307.5C320.6 64.6002 329.7 71.3002 329.7 82.9002V83.0002C329.7 95.6002 318.9 102 306.4 102H290.3V124.3H285.9V64.6002H285.8ZM306.6 98.0002C317.7 98.0002 325.2 92.2002 325.2 83.3002V83.1002C325.2 73.6002 317.9 68.7002 307.1 68.7002H290.2V98.0002H306.6ZM400.8 115.6L403.7 112.3C410.3 118.4 416.3 121.2 425.1 121.2C434.1 121.2 440.2 116.2 440.2 109.3V109.1C440.2 102.8 436.9 99.1002 423.3 96.4002C409 93.5002 403.2 88.6002 403.2 79.6002V79.4002C403.2 70.5002 411.3 63.7002 422.4 63.7002C431.1 63.7002 436.8 66.1002 442.9 71.0002L440.1 74.5002C434.5 69.6002 428.8 67.8002 422.3 67.8002C413.5 67.8002 407.7 72.8002 407.7 79.1002V79.3002C407.7 85.6002 410.9 89.5002 425.1 92.4002C438.9 95.2002 444.7 100.2 444.7 108.9V109.1C444.7 118.7 436.4 125.4 424.9 125.4C415.3 125.2 408 122 400.8 115.6ZM470.3 68.7002H449.5V64.6002H495.6V68.7002H474.8V124.4H470.4V68.7002H470.3ZM238 89.7002L258.7 64.6002H274.7L250.5 93.0002L276.5 124.4H259.6L238 97.7002V124.4H224.9V64.6002H238V89.7002Z" fill="#414146"/>
<path d="M387.1 50.9998C380.4 55.9998 379.2 64.8998 379 70.8998C368.5 58.6998 398.5 22.8998 364.4 0.799805C385.5 28.0998 334.4 54.9998 334.4 95.1998C334.4 111 344.3 124.9 365.9 129.7C387.1 125.2 397.6 111 397.6 95.1998C397.6 71.5998 382.9 63.7998 387.1 50.9998ZM365.9 116.8C354.3 116.8 345 107.4 345 95.8998C345 84.2998 354.4 74.9998 365.9 74.9998C377.5 74.9998 386.8 84.3998 386.8 95.8998C386.8 107.4 377.5 116.8 365.9 116.8Z" fill="#FA6423"/>
</svg>
